<svg xmlns="http://www.w3.org/2000/svg" width="1200" height="800" viewBox="0 0 1200 800">
  <defs>
    <pattern id="grid" width="60" height="60" patternUnits="userSpaceOnUse">
      <path d="M 60 0 L 0 0 0 60" fill="none" stroke="#7F77DD" stroke-width="0.5" opacity="0.07"/>
    </pattern>
    <radialGradient id="glow1" cx="20%" cy="30%" r="40%">
      <stop offset="0%" stop-color="#7F77DD" stop-opacity="0.08"/>
      <stop offset="100%" stop-color="#7F77DD" stop-opacity="0"/>
    </radialGradient>
    <radialGradient id="glow2" cx="80%" cy="70%" r="35%">
      <stop offset="0%" stop-color="#1D9E75" stop-opacity="0.06"/>
      <stop offset="100%" stop-color="#1D9E75" stop-opacity="0"/>
    </radialGradient>
    <radialGradient id="glow3" cx="60%" cy="20%" r="30%">
      <stop offset="0%" stop-color="#7F77DD" stop-opacity="0.05"/>
      <stop offset="100%" stop-color="#7F77DD" stop-opacity="0"/>
    </radialGradient>
  </defs>
  <rect width="1200" height="800" fill="#f5f4ef"/>
  <rect width="1200" height="800" fill="url(#grid)"/>
  <rect width="1200" height="800" fill="url(#glow1)"/>
  <rect width="1200" height="800" fill="url(#glow2)"/>
  <rect width="1200" height="800" fill="url(#glow3)"/>
  <!-- Decorative shapes -->
  <circle cx="150" cy="120" r="80" fill="#7F77DD" opacity="0.04"/>
  <circle cx="1050" cy="650" r="120" fill="#7F77DD" opacity="0.03"/>
  <circle cx="900" cy="150" r="60" fill="#1D9E75" opacity="0.04"/>
  <rect x="50" y="600" width="140" height="140" rx="30" fill="#7F77DD" opacity="0.03" transform="rotate(15 120 670)"/>
  <rect x="1000" y="350" width="100" height="100" rx="20" fill="#1D9E75" opacity="0.03" transform="rotate(-20 1050 400)"/>
  <!-- Dots pattern -->
  <circle cx="300" cy="200" r="3" fill="#7F77DD" opacity="0.1"/>
  <circle cx="360" cy="200" r="3" fill="#7F77DD" opacity="0.08"/>
  <circle cx="420" cy="200" r="3" fill="#7F77DD" opacity="0.06"/>
  <circle cx="300" cy="260" r="3" fill="#7F77DD" opacity="0.08"/>
  <circle cx="360" cy="260" r="3" fill="#7F77DD" opacity="0.1"/>
  <circle cx="420" cy="260" r="3" fill="#7F77DD" opacity="0.06"/>
  <circle cx="800" cy="500" r="3" fill="#1D9E75" opacity="0.1"/>
  <circle cx="860" cy="500" r="3" fill="#1D9E75" opacity="0.08"/>
  <circle cx="920" cy="500" r="3" fill="#1D9E75" opacity="0.06"/>
  <circle cx="800" cy="560" r="3" fill="#1D9E75" opacity="0.08"/>
  <circle cx="860" cy="560" r="3" fill="#1D9E75" opacity="0.1"/>
  <circle cx="920" cy="560" r="3" fill="#1D9E75" opacity="0.06"/>
</svg>